# xmcd
#
# Track frame offsets: 
#        150
#        16366
#        31380
#        42625
#        57804
#        71089
#        87257
#        112255
#        128124
#        145529
#        166184
#        177806
#        192116
#        209828
#        221824
#        236334
#        256948
#        270298
#        290341
#        309333
#        324293
#        342257
#
# Disc length: 4787 seconds
#
# Revision: 4
# Processed by: cddbd v1.5.2PL0 Copyright (c) Steve Scherf et al.
# Submitted via: ExactAudioCopy v1.3
#
DISCID=4112b116
DTITLE=Various Artist - Akella Presents - vol.77 - Rockin' Rollers Bl
DTITLE=ues  CD2
DYEAR=2016
DGENRE=Blues
TTITLE0=Terry Davidson and the Gears - Rat Rod
TTITLE1=John Campbelljohn - Rock This House
TTITLE2=Jim Adams - James Earl
TTITLE3=Wilko Johnson - I Keep It To Myself
TTITLE4=The Shadows - Put Your Cat Clothes On
TTITLE5=Too Slim and the Taildraggers - Comin' Home
TTITLE6=Jim Adams - The Story of Ten
TTITLE7=Johnnie Johnson - Little Queenie
TTITLE8=Bluebone - Bad Dog
TTITLE9=Pat Ramsey - I Need Money
TTITLE10=Joe Lewis Band - Holy Roller
TTITLE11=The Groove Junkies - Drunk Again
TTITLE12=Bob Hall - I Can't Get My Ass In Gear
TTITLE13=Mudcats Blues Trio - Times Have Changed
TTITLE14=Helander Blues Co - Big Cold Beer
TTITLE15=Mic Gillette Band - Let It Roll
TTITLE16=Bluebone - Happy Cat
TTITLE17=Doobie Twisters - Little Bit of Blues
TTITLE18=George Thorogood - Moving
TTITLE19=Sharrie Williams - I'm Here to Stay
TTITLE20=Tas Cru - Half The Time
TTITLE21=Dr. Feelgood - See You Later Alligator
EXTD=
EXTT0=
EXTT1=
EXTT2=
EXTT3=
EXTT4=
EXTT5=
EXTT6=
EXTT7=
EXTT8=
EXTT9=
EXTT10=
EXTT11=
EXTT12=
EXTT13=
EXTT14=
EXTT15=
EXTT16=
EXTT17=
EXTT18=
EXTT19=
EXTT20=
EXTT21=
PLAYORDER=
